<svg width="608" height="109" viewBox="0 0 608 109" fill="none" xmlns="http://www.w3.org/2000/svg">
<path d="M33.9997 32.3062H0.97859L0 39.9342L5.95936 46.8219H28.492L26.6728 60.9362L39.5952 75.8534H42.8321L46.5708 46.8219L33.9997 32.3062Z" fill="#69BF40"/>
<path d="M9.47241 108.134H23.8251L40.5364 93.4052L42.3806 79.1028H13.2111L9.47241 108.134Z" fill="#69BF40"/>
<path d="M81.3232 32.3062H66.7197L50.2467 46.8219L44.6387 90.3692H59.0666L75.5395 75.8534L81.3232 32.3062Z" fill="#69BF40"/>
<path d="M131.219 6.86646e-05L103.304 0.0627988L87.5086 13.9889L85.564 29.0566L112.877 29.0316H142.071L143.941 14.5158L131.219 6.86646e-05ZM124.582 10.4509H117.042L113.015 3.51295L127.016 8.49372L124.57 10.4509H124.582Z" fill="#69BF40"/>
<path d="M83.2803 46.8219H93.7311L92.9533 52.844H82.5025L79.5291 75.8534H93.681L110.493 61.0366L114.256 32.3062H85.1497L83.2803 46.8219Z" fill="#69BF40"/>
<path d="M79.1153 79.1028L75.364 108.134H104.446L106.315 93.6185L93.7439 79.1028H79.1153Z" fill="#69BF40"/>
<path fill-rule="evenodd" clip-rule="evenodd" d="M269.175 108.405H254.99L264.47 34.8055H277.068L276.281 40.9575L283.121 34.8055H302.462L310.065 43.5413L305.378 79.9486L295.523 88.6844H271.716L269.175 108.405ZM276.551 51.2805L280.636 48.0076H295.228L291.647 75.7776H273.402L276.551 51.2805Z" fill="white"/>
<path d="M580.182 14.9595H565.997L556.511 88.6723L556.523 88.6846H570.709L572.825 72.2096L580.847 66.1561L588.782 80.0472L587.675 88.6723H601.861L603.411 76.6637L591.772 57.6172L606.524 46.3099L608 34.7934H593.802L592.867 42.0404L574.892 56.03L580.182 14.9595Z" fill="white"/>
<path d="M496.717 14.9595H482.236L480.698 26.8697H495.179L496.717 14.9595Z" fill="white"/>
<path d="M471.213 14.9595H457.015L447.529 88.6723H461.727L471.213 14.9595Z" fill="white"/>
<path d="M325.629 88.6724L318.025 79.9366L322.381 46.1009H315.331L316.783 34.7936H323.833L325.309 23.2894H339.495L338.018 34.7936H351.909L350.457 46.1009H336.566L332.789 75.4703H347.467L345.769 88.6601H325.629V88.6724Z" fill="white"/>
<path fill-rule="evenodd" clip-rule="evenodd" d="M246.101 88.6724H234.204L235.003 82.4221L228.04 88.6724H209.388L201.785 79.9367L203.47 66.8453L213.325 58.1095H236.344L237.772 46.9991H220.116L219.44 52.2528H206.042L207.161 43.5171L217.016 34.7813H244.305L251.908 43.5171L246.101 88.6602V88.6724ZM217.299 65.7625L215.798 77.4636H230.279L234.241 74.3876L235.348 65.7625H217.299Z" fill="white"/>
<path d="M163.94 88.6724L170.879 34.7936H183.477L182.542 42.0406L190.724 34.7936H202.83L201.083 48.3894H187.488L182.825 52.2528L178.138 88.6601H163.952L163.94 88.6724Z" fill="white"/>
<path fill-rule="evenodd" clip-rule="evenodd" d="M404.874 43.5413L397.27 34.8055H367.989L358.232 43.5413L353.545 79.9486L361.062 88.6844H390.331L400.186 79.9486L404.874 43.5413ZM371.901 47.7H390.147L386.53 75.7776H368.284L371.901 47.7Z" fill="white"/>
<path d="M409.807 88.6724L409.809 88.6601H424.005L428.693 52.2528L433.356 48.3894H446.951L448.698 34.7936H436.591L428.41 42.0406L429.345 34.7936H416.746L409.809 88.6601H409.807V88.6724Z" fill="white"/>
<path d="M472.849 88.6723L479.788 34.7934H493.974L487.035 88.6723H472.849Z" fill="white"/>
<path d="M505.182 34.7936L498.243 88.6724H512.453L517.264 51.2685L521.348 47.9957H536.432L531.191 88.6724H545.377L551.184 43.5294L543.58 34.7936H523.834L516.993 40.9455L517.78 34.7936H505.182Z" fill="white"/>
</svg>
